<svg width="781" height="381" viewBox="0 0 781 381" fill="none" xmlns="http://www.w3.org/2000/svg">
<g clip-path="url(#clip0)">
<path opacity="0.18" d="M44.6961 312.86C31.8338 302.916 21.2241 290.358 13.5661 276.014C5.90811 261.67 1.37557 245.866 0.267148 229.643C-0.841278 213.42 1.49956 197.146 7.13544 181.893C12.7713 166.64 21.5743 152.755 32.9644 141.153C49.9948 123.969 72.0079 112.922 90.8975 98.0447C123.564 72.4736 147.752 35.5397 184.193 16.0126C228.07 -7.51276 281.244 -1.30131 329.435 10.4335C377.625 22.1683 426.039 38.9801 475.457 34.74C504.889 32.1922 533.223 22.2241 562.376 17.3702C591.528 12.5164 623.507 13.3904 647.899 30.3883C683.41 55.2898 691.851 105.614 720.985 138.066C735.097 153.799 753.837 164.994 766.331 182.104C786.429 209.609 785.909 250.913 765.123 277.898C738.499 312.396 690.457 317.863 651.711 336.832C630.144 347.395 610.808 362.626 588.498 371.479C541.608 390.076 488.862 377.969 440.783 362.943C392.704 347.916 343.174 329.84 293.403 337.204C246.923 344.122 205.035 372.818 158.164 377.169C136.411 379.197 111.572 375.31 98.2786 356.527C83.9812 336.386 64.0505 327.738 44.6961 312.86Z" fill="#5870F2"/>
<path d="M57.301 206.28C69.925 192.239 69.925 192.239 84.241 175.39L145.167 104.07C158.647 88.6154 163.983 81.6043 171.196 70.5948H228.832C227.184 86.0732 226.433 101.634 226.582 117.199V208.53H234.726C244.063 208.442 253.383 207.69 262.614 206.28V257.385C253.485 256.263 244.295 255.704 235.098 255.711H226.675V269.752C226.406 281.307 227.159 292.864 228.925 304.287H170.992C172.586 292.659 173.338 280.93 173.242 269.194V255.432H93.7973C75.5399 255.432 67.7683 255.711 57.301 256.548V206.28ZM173.52 176.524C173.52 163.878 174.078 148.442 175.212 136.075C169.635 143.942 165.377 149.558 157.81 159.099L116.814 209.088H173.52V176.524Z" fill="#5870F2"/>
<path d="M57.301 206.28C69.925 192.239 69.925 192.239 84.241 175.39L145.167 104.07C158.647 88.6154 163.983 81.6043 171.196 70.5948H228.832C227.184 86.0732 226.433 101.634 226.582 117.199V208.53H234.726C244.063 208.442 253.383 207.69 262.614 206.28V257.385C253.485 256.263 244.295 255.704 235.098 255.711H226.675V269.752C226.406 281.307 227.159 292.864 228.925 304.287H170.992C172.586 292.659 173.338 280.93 173.242 269.194V255.432H93.7973C75.5399 255.432 67.7683 255.711 57.301 256.548V206.28ZM173.52 176.524C173.52 163.878 174.078 148.442 175.212 136.075C169.635 143.942 165.377 149.558 157.81 159.099L116.814 209.088H173.52V176.524Z" fill="url(#paint0_linear)"/>
<path d="M369.723 135.852C375.301 136.782 380.488 140.204 386.084 141.431C390.974 142.547 396.124 141.971 400.958 143.682C409.975 146.88 415.832 157.76 417.115 168.676C418.397 179.593 416.111 190.64 413.508 201.24C406.666 229.173 397.37 257.069 380.637 278.251C379.466 279.72 378.053 281.263 376.323 281.226C375.124 281.061 374.002 280.536 373.107 279.72C369.594 277.314 366.38 274.498 363.532 271.333C359.07 265.958 356.486 258.872 354.236 251.843C347.896 232.055 335.793 219.521 333.543 198.543C331.089 176.543 343.118 131.463 369.723 135.852Z" fill="#5870F2"/>
<path d="M351.726 149.949C349.352 149.52 346.903 149.963 344.828 151.195C342.652 152.533 340.773 154.303 339.305 156.394C337.838 158.486 336.813 160.855 336.295 163.357C335.288 168.371 335.106 173.516 335.755 178.589C337.028 193.475 339.914 208.178 344.364 222.441C345.665 226.569 341.947 236.37 344.642 239.755C346.836 242.507 345.739 259.04 348.603 261.086C356.541 266.813 373.033 263.652 380.971 269.38C391.253 276.819 390.565 257.18 388.929 249.09C387.07 240.071 373.107 241.651 362.417 211.189C348.194 170.648 355.37 150.786 351.726 149.949Z" fill="url(#paint1_linear)"/>
<path d="M490.777 205.238C503.401 191.197 503.401 191.197 517.717 174.348L578.643 103.01C588.152 92.5249 596.853 81.3345 604.672 69.5348H662.308C660.659 85.0194 659.908 100.586 660.058 116.158V207.433H668.201C677.508 207.332 686.795 206.58 695.997 205.182V256.287C686.869 255.15 677.679 254.585 668.48 254.595H660.058V268.636C659.788 280.191 660.541 291.748 662.308 303.171H604.468C606.055 291.592 606.806 279.914 606.717 268.227V254.465H527.273C509.016 254.465 501.151 254.744 490.777 255.599V205.238ZM606.996 175.483C606.996 162.837 607.554 147.401 608.669 135.053C603.092 142.901 598.853 148.517 591.267 158.076L550.365 208.065H607.071L606.996 175.483Z" fill="#5870F2"/>
<path d="M490.777 205.238C503.401 191.197 503.401 191.197 517.717 174.348L578.643 103.01C588.152 92.5249 596.853 81.3345 604.672 69.5348H662.308C660.659 85.0194 659.908 100.586 660.058 116.158V207.433H668.201C677.508 207.332 686.795 206.58 695.997 205.182V256.287C686.869 255.15 677.679 254.585 668.48 254.595H660.058V268.636C659.788 280.191 660.541 291.748 662.308 303.171H604.468C606.055 291.592 606.806 279.914 606.717 268.227V254.465H527.273C509.016 254.465 501.151 254.744 490.777 255.599V205.238ZM606.996 175.483C606.996 162.837 607.554 147.401 608.669 135.053C603.092 142.901 598.853 148.517 591.267 158.076L550.365 208.065H607.071L606.996 175.483Z" fill="url(#paint2_linear)"/>
<path d="M309.113 281.133C300.161 272.307 293.189 261.675 288.662 249.946C281.265 229.319 277.558 207.55 277.711 185.637C277.711 156.16 284.739 125.549 295.411 107.864C312.534 79.2053 341.724 63.4907 377.104 63.4907C404.342 63.4907 428.196 72.7893 445.319 89.5267C454.271 98.3463 461.243 108.972 465.77 120.696C473.183 141.414 476.883 163.279 476.702 185.283C476.702 214.779 469.693 245.668 459.021 263.392C442.177 291.51 412.708 307.281 377.049 307.281C349.532 307.281 326.236 298.243 309.113 281.133ZM335.142 183.405C335.142 233.618 349.458 259.505 377.253 259.505C405.048 259.505 418.807 234.231 418.807 184.242C418.807 136.224 404.212 110.951 376.974 110.951C350.666 110.951 335.216 137.619 335.216 183.405H335.142Z" fill="#5870F2"/>
<path d="M309.113 281.133C300.161 272.307 293.189 261.675 288.662 249.946C281.265 229.319 277.558 207.55 277.711 185.637C277.711 156.16 284.739 125.549 295.411 107.864C312.534 79.2053 341.724 63.4907 377.104 63.4907C404.342 63.4907 428.196 72.7893 445.319 89.5267C454.271 98.3463 461.243 108.972 465.77 120.696C473.183 141.414 476.883 163.279 476.702 185.283C476.702 214.779 469.693 245.668 459.021 263.392C442.177 291.51 412.708 307.281 377.049 307.281C349.532 307.281 326.236 298.243 309.113 281.133ZM335.142 183.405C335.142 233.618 349.458 259.505 377.253 259.505C405.048 259.505 418.807 234.231 418.807 184.242C418.807 136.224 404.212 110.951 376.974 110.951C350.666 110.951 335.216 137.619 335.216 183.405H335.142Z" fill="url(#paint3_linear)"/>
<path d="M63.6037 205.238C76.2464 191.197 76.2464 191.197 90.5623 174.348L151.489 103.01C160.998 92.5249 169.699 81.3345 177.518 69.5348H235.153C233.505 85.0194 232.754 100.586 232.904 116.158V207.433H241.047C250.384 207.336 259.703 206.584 268.935 205.182V256.287C259.807 255.15 250.617 254.585 241.419 254.595H232.997V268.636C232.726 280.191 233.479 291.748 235.246 303.171H177.313C178.9 291.592 179.652 279.914 179.563 268.227V254.465H100.1C81.8612 254.465 74.0711 254.744 63.6037 255.599V205.238ZM179.842 175.483C179.842 162.837 180.4 147.401 181.515 135.053C175.937 142.901 171.698 148.517 164.113 158.076L123.21 208.065H179.842V175.483Z" fill="#5870F2"/>
<path d="M315.416 282.175C306.465 273.354 299.493 262.729 294.964 251.006C287.548 230.382 283.823 208.613 283.958 186.697C283.958 157.22 290.986 126.609 301.657 108.905C318.781 80.2653 347.97 64.5507 383.351 64.5507C410.57 64.5507 434.443 73.8493 451.566 90.5868C460.523 99.402 467.496 110.028 472.017 121.756C479.472 142.485 483.198 164.371 483.024 186.399C483.024 215.876 476.015 246.784 465.343 264.507C448.498 292.589 419.011 308.304 383.37 308.304C355.854 308.285 332.558 299.303 315.416 282.175ZM341.593 184.54C341.593 234.752 355.909 260.639 383.705 260.639C411.221 260.639 425.258 235.366 425.258 185.395C425.258 137.359 410.645 112.085 383.426 112.085C356.969 112.011 341.593 138.679 341.593 184.54Z" fill="#5870F2"/>
<path d="M429.162 86.8116C431.254 88.3364 432.848 90.4459 433.745 92.8747C434.641 95.3035 434.8 97.9432 434.201 100.462C437.708 100.797 441.115 101.824 444.223 103.484C447.331 105.144 450.08 107.404 452.31 110.132C456.306 115.407 458.724 121.707 459.282 128.302C459.818 134.858 459.674 141.451 458.854 147.978C458.762 150.233 458.297 152.458 457.478 154.561C456.517 156.386 455.162 157.974 453.513 159.212C451.864 160.45 449.961 161.307 447.94 161.721C443.902 162.527 439.766 162.722 435.67 162.297L425.909 161.777C425.587 161.784 425.268 161.714 424.979 161.572C424.784 161.406 424.626 161.201 424.514 160.971C424.402 160.74 424.339 160.489 424.328 160.233C423.659 156.235 422.636 154.487 421.911 150.488C420.1 142.046 416.554 134.073 411.5 127.074C410.604 126.028 409.967 124.786 409.641 123.448C409.529 121.598 409.941 119.755 410.83 118.129C412.152 114.931 413.246 111.644 414.103 108.291C414.891 104.279 415.915 100.317 417.17 96.4263C418.449 92.4935 421.085 89.1444 424.607 86.9789" fill="url(#paint4_linear)"/>
<path d="M424.607 203.62C424.607 203.62 460.341 206.782 476.665 185.023C483.172 176.394 468.671 135.741 468.671 135.741L452.179 165.273L426.15 171.187L424.607 203.62Z" fill="url(#paint5_linear)"/>
<path d="M497.619 205.238C510.243 191.197 510.243 191.197 524.559 174.348L585.485 103.01C598.964 87.574 604.3 80.5443 611.514 69.5348H669.15C667.518 85.039 666.785 100.625 666.956 116.214V207.488H675.099C684.405 207.387 693.693 206.635 702.894 205.238V256.343C693.767 255.206 684.577 254.641 675.378 254.651H666.956V268.692C666.686 280.247 667.438 291.804 669.206 303.227H611.31C612.899 291.629 613.651 279.932 613.559 268.227V254.465H534.115C515.857 254.465 507.993 254.744 497.619 255.599V205.238ZM613.838 175.483C613.838 162.837 614.396 147.401 615.53 135.053C609.952 142.901 605.695 148.517 598.128 158.076L557.132 208.065H613.838V175.483Z" fill="#5870F2"/>
<path d="M340.757 140.018C339.794 140.37 338.861 140.799 337.968 141.301C337.129 141.726 336.393 142.329 335.811 143.068C335.527 143.443 335.344 143.884 335.279 144.349C335.214 144.815 335.269 145.289 335.439 145.727C335.817 146.31 336.362 146.765 337.002 147.033C337.642 147.302 338.348 147.372 339.028 147.234C341.314 147.011 343.434 145.876 345.721 145.486C348.008 145.095 350.164 143.514 348.547 141.078C346.929 138.642 343.044 139.163 340.757 140.018Z" fill="#F7AF87"/>
<path d="M348.045 145.486C344.698 144.612 341.203 146.081 338.191 147.773C337.48 148.119 336.848 148.606 336.332 149.205C336.022 149.452 335.799 149.791 335.695 150.174C335.592 150.557 335.613 150.962 335.756 151.332C335.9 151.701 336.157 152.016 336.491 152.229C336.826 152.441 337.219 152.542 337.615 152.515C338.299 152.584 338.99 152.54 339.66 152.385L344.289 151.585C345.366 151.459 346.415 151.158 347.394 150.693C349.495 149.465 351.28 146.285 348.045 145.486Z" fill="#F7AF87"/>
<path d="M341.593 151.641C340.633 152.007 339.701 152.442 338.805 152.943C337.956 153.395 337.219 154.03 336.648 154.803C336.369 155.176 336.189 155.614 336.124 156.075C336.059 156.537 336.111 157.008 336.276 157.444C336.654 158.026 337.198 158.481 337.838 158.75C338.478 159.018 339.184 159.088 339.864 158.95C342.151 158.727 344.271 157.592 346.558 157.202C348.844 156.811 351.001 155.249 349.384 152.794C347.766 150.339 343.843 150.786 341.593 151.641Z" fill="#F7AF87"/>
<path d="M348.807 156.328C345.368 156.049 342.188 158.187 339.511 160.307C338.86 160.784 338.311 161.384 337.894 162.074C337.638 162.374 337.484 162.746 337.454 163.139C337.424 163.531 337.519 163.923 337.726 164.258C337.933 164.593 338.24 164.854 338.604 165.003C338.969 165.152 339.371 165.181 339.753 165.087C340.432 165.036 341.098 164.873 341.724 164.603L346.13 162.985C347.175 162.672 348.161 162.188 349.049 161.554C350.889 160.029 352.135 156.644 348.807 156.328Z" fill="#F7AF87"/>
<path d="M447.345 103.828C441.925 101.244 435.963 100 429.962 100.201C428.947 100.152 427.934 100.317 426.987 100.685C426.524 100.887 426.129 101.22 425.852 101.643C425.575 102.065 425.426 102.56 425.425 103.065C425.606 103.948 426.11 104.73 426.838 105.26C429.034 107.257 431.5 108.935 434.164 110.244C434.968 110.561 435.701 111.036 436.32 111.639C436.623 111.944 436.818 112.34 436.875 112.766C436.933 113.193 436.849 113.626 436.636 114.001C436.023 114.856 434.61 114.893 434.145 115.86C433.531 117.069 435.075 118.259 436.413 118.483C437.836 118.726 439.298 118.591 440.652 118.092C441.601 117.604 442.638 117.313 443.701 117.236C444.752 117.462 445.742 117.912 446.602 118.557C449.539 120.231 458.668 120.286 458.092 115.191C457.553 110.467 451.101 105.781 447.345 103.828Z" fill="#F7AF87"/>
<path d="M402.427 144.835C402.427 144.835 443.534 161.777 448.238 160.903C452.942 160.029 445.338 119.45 445.338 119.45L459.356 113.034C459.356 113.034 490.963 175.706 465.082 184.819C449.078 190.175 431.738 189.992 415.85 184.298L402.427 144.835Z" fill="#5870F2"/>
<path d="M424.291 121.309C424.146 124.95 423.287 128.526 421.763 131.835C420.27 134.301 418.225 136.386 415.789 137.925C413.353 139.465 410.593 140.417 407.726 140.706C405.637 140.841 403.561 141.133 401.516 141.58C400.568 141.774 399.683 142.201 398.94 142.82C398.197 143.44 397.619 144.234 397.258 145.132C395.604 149.149 393.893 153.222 388.557 151.864C388.056 151.753 387.569 151.585 387.107 151.362C385.43 150.575 383.921 149.469 382.663 148.108C381.098 146.523 379.736 144.749 378.61 142.826C378.028 141.937 377.635 140.936 377.458 139.888C377.348 138.6 377.5 137.303 377.904 136.075C379.763 128.637 380.06 120.212 382.701 112.959C385.403 105.607 390.567 99.4171 397.314 95.4406C403.989 91.5538 413.266 91.498 418.937 96.7982C422.039 99.905 424.004 103.967 424.514 108.328C424.961 112.649 424.886 117.007 424.291 121.309Z" fill="#F7AF87"/>
<path d="M379.075 112.011C379.428 108.514 379.41 104.962 380.098 101.522C380.618 98.0069 382.379 94.7942 385.062 92.4651C385.735 91.9299 386.488 91.5032 387.293 91.2005C388.018 90.9401 388.78 90.7914 389.524 90.5868C391.709 89.8072 393.793 88.7709 395.734 87.4997C398.676 85.7359 401.894 84.4786 405.253 83.7802C407.523 83.4329 409.817 83.2712 412.113 83.2967C416.328 83.2223 420.56 83.1851 424.812 83.1851C425.809 83.1102 426.811 83.276 427.731 83.6686C428.741 84.2926 429.479 85.2759 429.794 86.421C430.603 88.9871 430.603 91.7401 429.794 94.3062C428.972 96.8449 427.881 99.2887 426.541 101.596C425.888 103.051 424.967 104.369 423.826 105.483C422.841 103.772 421.967 102.005 421.075 100.22C418.23 103.177 413.749 103.94 409.659 103.623C405.569 103.307 401.553 102.247 397.463 102.191C396.49 102.088 395.507 102.178 394.569 102.456C393.631 102.733 392.757 103.193 391.997 103.809C391.081 104.877 390.442 106.155 390.137 107.529C389.277 110.59 388.576 113.694 388.037 116.827C387.553 115.916 385.601 113.536 384.578 113.573C384.283 113.601 383.997 113.69 383.738 113.834C383.479 113.978 383.252 114.174 383.072 114.41C381.381 116.269 382.217 123.095 383.779 125.066C384.092 125.365 384.328 125.735 384.467 126.145C384.498 126.419 384.475 126.696 384.399 126.961C384.322 127.226 384.193 127.473 384.021 127.688C383.591 128.195 383.046 128.592 382.431 128.844C381.816 129.097 381.15 129.198 380.488 129.139C378.852 129.139 378.536 126.014 378.369 124.861C377.681 120.565 378.666 116.232 379.075 112.011Z" fill="#606060"/>
<path d="M385.601 119.859C385.371 119.378 385.269 118.847 385.303 118.315C385.342 117.782 385.285 117.247 385.136 116.734C384.966 116.264 384.628 115.873 384.188 115.637C384.06 115.6 383.925 115.6 383.798 115.637C383.689 115.683 383.594 115.754 383.52 115.845C383.445 115.935 383.394 116.043 383.37 116.158C382.719 118.196 382.792 120.397 383.574 122.388C383.678 122.745 383.86 123.074 384.108 123.351C384.356 123.628 384.663 123.845 385.006 123.987C385.309 124.048 385.622 124.032 385.918 123.941C386.213 123.85 386.481 123.687 386.698 123.467C386.99 123.157 387.191 122.772 387.276 122.354C387.361 121.937 387.329 121.504 387.181 121.105C386.865 120.361 385.991 120.528 385.601 119.859Z" fill="url(#paint6_linear)"/>
<path d="M401.516 141.543C400.568 141.737 399.683 142.163 398.94 142.783C398.197 143.403 397.619 144.197 397.258 145.095C395.604 149.112 393.893 153.185 388.557 151.827C388.056 151.716 387.569 151.548 387.107 151.325C386.656 150.939 386.289 150.464 386.029 149.93C385.79 149.303 385.68 148.633 385.706 147.962C385.731 147.292 385.892 146.633 386.177 146.025C386.822 144.462 387.907 143.12 389.3 142.163C390.692 141.205 392.334 140.673 394.023 140.632C395.443 140.697 396.855 140.884 398.244 141.19C399.099 141.301 400.103 141.19 400.884 141.283C401.111 141.323 401.326 141.412 401.516 141.543Z" fill="url(#paint7_linear)"/>
</g>
<defs>
<linearGradient id="paint0_linear" x1="-121.351" y1="15.603" x2="488.42" y2="356.721" gradientUnits="userSpaceOnUse">
<stop stop-opacity="0"/>
<stop offset="0.99"/>
</linearGradient>
<linearGradient id="paint1_linear" x1="12171.8" y1="20124.4" x2="5062.97" y2="22091" gradientUnits="userSpaceOnUse">
<stop stop-opacity="0"/>
<stop offset="0.99"/>
</linearGradient>
<linearGradient id="paint2_linear" x1="87783.2" y1="58294" x2="22392.3" y2="9328.33" gradientUnits="userSpaceOnUse">
<stop stop-opacity="0"/>
<stop offset="0.99"/>
</linearGradient>
<linearGradient id="paint3_linear" x1="59160.6" y1="40827.6" x2="-3370.46" y2="38757" gradientUnits="userSpaceOnUse">
<stop stop-opacity="0"/>
<stop offset="0.99"/>
</linearGradient>
<linearGradient id="paint4_linear" x1="13365.5" y1="8064.54" x2="6913.77" y2="12623.9" gradientUnits="userSpaceOnUse">
<stop stop-opacity="0"/>
<stop offset="0.99"/>
</linearGradient>
<linearGradient id="paint5_linear" x1="13667.1" y1="12405.4" x2="12557" y2="8269.69" gradientUnits="userSpaceOnUse">
<stop stop-opacity="0"/>
<stop offset="0.99"/>
</linearGradient>
<linearGradient id="paint6_linear" x1="1290.59" y1="1195.61" x2="1302.94" y2="1193.37" gradientUnits="userSpaceOnUse">
<stop stop-opacity="0"/>
<stop offset="0.99"/>
</linearGradient>
<linearGradient id="paint7_linear" x1="3664.16" y1="1726.73" x2="3841.56" y2="1927.3" gradientUnits="userSpaceOnUse">
<stop stop-opacity="0"/>
<stop offset="0.99"/>
</linearGradient>
<clipPath id="clip0">
<rect width="781" height="381" fill="white"/>
</clipPath>
</defs>
</svg>
